<svg width="109" height="102" viewBox="0 0 109 102" fill="none" xmlns="http://www.w3.org/2000/svg">
<g clip-path="url(#clip0_102_3734)">
<path fill-rule="evenodd" clip-rule="evenodd" d="M57.1045 0.00718736C72.7741 -0.237315 88.1743 5.75616 98.0734 18.0186C108.095 30.4331 111.033 46.9928 107.666 62.6418C104.252 78.514 95.3384 93.7579 80.4545 99.9318C66.3337 105.789 51.6228 97.9847 37.6992 91.664C23.0498 85.0149 5.39236 79.5171 1.07687 63.9008C-3.37369 47.7959 6.71516 31.7932 17.6941 19.2728C27.872 7.66595 41.7494 0.246783 57.1045 0.00718736Z" fill="#FFF7EC"/>
<path d="M75.1455 56.6667H33.0225C32.6422 56.6667 32.3131 56.5299 32.0352 56.2563C31.7573 55.9828 31.6183 55.6589 31.6183 55.2846C31.6183 49.8713 33.3223 45.2571 36.7302 41.4419C40.1381 37.6267 44.5185 35.3303 49.8717 34.5529C50.2519 34.5529 50.581 34.4161 50.8589 34.1426C51.1368 33.869 51.2758 33.5451 51.2758 33.1708C51.2758 32.7964 51.1368 32.4725 50.8589 32.1989C50.581 31.9254 50.2519 31.7886 49.8717 31.7886C49.4914 31.7886 49.1624 31.6519 48.8844 31.3783C48.6065 31.1048 48.4676 30.7809 48.4676 30.4066C48.4676 30.0322 48.6065 29.7083 48.8844 29.4347C49.1624 29.1612 49.4914 29.0244 49.8717 29.0244H58.2963C58.6766 29.0244 59.0056 29.1612 59.2835 29.4347C59.5615 29.7083 59.7004 30.0322 59.7004 30.4066C59.7004 30.7809 59.5615 31.1048 59.2835 31.3783C59.0056 31.6519 58.6766 31.7886 58.2963 31.7886C57.9161 31.7886 57.587 31.9254 57.3091 32.1989C57.0312 32.4725 56.8922 32.7964 56.8922 33.1708C56.8922 33.5451 57.0312 33.869 57.3091 34.1426C57.587 34.4161 57.9161 34.5529 58.2963 34.5529C63.6495 35.3303 68.0299 37.6267 71.4378 41.4419C74.8457 45.2571 76.5496 49.8713 76.5496 55.2846C76.5496 55.6589 76.4107 55.9828 76.1328 56.2563C75.8549 56.5299 75.5258 56.6667 75.1455 56.6667ZM33.0225 59.4309H75.1455C75.5258 59.4309 75.8549 59.5677 76.1328 59.8413C76.4107 60.1148 76.5496 60.4387 76.5496 60.813C76.5496 61.1873 76.4107 61.5112 76.1328 61.7848C75.8549 62.0584 75.5258 62.1951 75.1455 62.1951H33.0225C32.6422 62.1951 32.3131 62.0584 32.0352 61.7848C31.7573 61.5112 31.6183 61.1873 31.6183 60.813C31.6183 60.4387 31.7573 60.1148 32.0352 59.8413C32.3131 59.5677 32.6422 59.4309 33.0225 59.4309Z" fill="url(#paint0_linear_102_3734)"/>
</g>
<defs>
<linearGradient id="paint0_linear_102_3734" x1="63.2367" y1="33.5854" x2="34.211" y2="62.2927" gradientUnits="userSpaceOnUse">
<stop stop-color="#FF9832"/>
<stop offset="1" stop-color="#FF7B1C"/>
</linearGradient>
<clipPath id="clip0_102_3734">
<rect width="109" height="102" fill="white"/>
</clipPath>
</defs>
</svg>
