<svg width="115" height="104" viewBox="0 0 115 104" fill="none" xmlns="http://www.w3.org/2000/svg">
<g clip-path="url(#clip0_102_3737)">
<path fill-rule="evenodd" clip-rule="evenodd" d="M58.8653 0.0346806C75.8405 -0.159505 94.5274 0.0185168 105.515 12.9868C116.781 26.2834 116.889 45.706 111.657 62.3425C106.926 77.3854 94.0489 87.1353 79.9758 94.1967C65.5363 101.441 49.4785 106.993 34.4452 101.084C18.1301 94.6709 5.66484 80.4488 1.56261 63.3742C-2.59645 46.063 1.59818 27.2305 13.5324 14.0389C24.7066 1.68766 42.23 0.224979 58.8653 0.0346806Z" fill="#FFF7EC"/>
<path d="M48.2824 35.4747C48.2824 35.1826 48.1668 34.9023 47.9611 34.6957C47.7553 34.4891 47.4761 34.373 47.1851 34.373C46.8941 34.373 46.6149 34.4891 46.4092 34.6957C46.2034 34.9023 46.0878 35.1826 46.0878 35.4747V36.5764H43.8931C42.729 36.5764 41.6125 37.0407 40.7894 37.8672C39.9663 38.6935 39.5038 39.8145 39.5038 40.9832V43.1866H74.6183V40.9832C74.6183 39.8145 74.1559 38.6935 73.3327 37.8672C72.5096 37.0407 71.3931 36.5764 70.229 36.5764H68.0343V35.4747C68.0343 35.1826 67.9187 34.9023 67.713 34.6957C67.5072 34.4891 67.228 34.373 66.937 34.373C66.646 34.373 66.3668 34.4891 66.1611 34.6957C65.9553 34.9023 65.8397 35.1826 65.8397 35.4747V36.5764H48.2824V35.4747ZM74.6183 65.2205V45.39H39.5038V65.2205C39.5038 66.3893 39.9663 67.5102 40.7894 68.3365C41.6125 69.163 42.729 69.6273 43.8931 69.6273H70.229C71.3931 69.6273 72.5096 69.163 73.3327 68.3365C74.1559 67.5102 74.6183 66.3893 74.6183 65.2205ZM63.3246 53.8819L56.7406 60.492C56.6387 60.5946 56.5176 60.6761 56.3843 60.7316C56.251 60.7871 56.1081 60.8157 55.9637 60.8157C55.8194 60.8157 55.6765 60.7871 55.5432 60.7316C55.4099 60.6761 55.2888 60.5946 55.1868 60.492L51.8948 57.1869C51.6888 56.9801 51.573 56.6995 51.573 56.4069C51.573 56.1144 51.6888 55.8338 51.8948 55.6269C52.1009 55.4201 52.3804 55.3038 52.6718 55.3038C52.9631 55.3038 53.2426 55.4201 53.4487 55.6269L55.9637 58.1542L61.7708 52.3219C61.9768 52.115 62.2563 51.9988 62.5477 51.9988C62.8391 51.9988 63.1186 52.115 63.3246 52.3219C63.5307 52.5287 63.6464 52.8093 63.6464 53.1019C63.6464 53.3944 63.5307 53.675 63.3246 53.8819Z" fill="url(#paint0_linear_102_3737)"/>
</g>
<defs>
<linearGradient id="paint0_linear_102_3737" x1="72.3424" y1="34.373" x2="43.2748" y2="67.5544" gradientUnits="userSpaceOnUse">
<stop stop-color="#FF9832"/>
<stop offset="1" stop-color="#FF7B1C"/>
</linearGradient>
<clipPath id="clip0_102_3737">
<rect width="115" height="104" fill="white"/>
</clipPath>
</defs>
</svg>
