<svg width="108" height="104" viewBox="0 0 108 104" fill="none" xmlns="http://www.w3.org/2000/svg">
<g clip-path="url(#clip0_102_3740)">
<path fill-rule="evenodd" clip-rule="evenodd" d="M56.1161 0.00027963C70.4981 0.050159 83.8014 6.63558 93.2733 17.6313C103.374 29.3582 109.911 44.2616 107.498 59.6509C104.886 76.3097 95.3599 91.6529 80.49 99.1574C65.4196 106.763 47.7419 104.805 32.5356 97.4835C17.1969 90.0978 3.43099 77.6196 0.485092 60.6363C-2.33249 44.3927 7.57023 29.4377 18.6396 17.3725C28.4897 6.63617 41.6699 -0.0498227 56.1161 0.00027963Z" fill="#FFF7EC"/>
<path d="M37.9237 34.6665C36.8304 34.6665 35.7819 35.1013 35.0089 35.8753C34.2358 36.6492 33.8015 37.6989 33.8015 38.7935V61.4919H37.9237C37.9237 63.1337 38.5751 64.7083 39.7347 65.8692C40.8942 67.0301 42.467 67.6824 44.1069 67.6824C45.7467 67.6824 47.3195 67.0301 48.4791 65.8692C49.6386 64.7083 50.2901 63.1337 50.2901 61.4919H62.6565C62.6565 63.1337 63.3079 64.7083 64.4675 65.8692C65.6271 67.0301 67.1998 67.6824 68.8397 67.6824C70.4796 67.6824 72.0523 67.0301 73.2119 65.8692C74.3714 64.7083 75.0229 63.1337 75.0229 61.4919H79.145V51.1744L72.9618 42.9205H66.7786V34.6665H37.9237ZM52.3511 38.7935L60.5954 47.0475L52.3511 55.3014V49.1109H39.9847V44.984H52.3511V38.7935ZM66.7786 46.0157H71.9313L75.9916 51.1744H66.7786V46.0157ZM44.1069 58.3967C44.9268 58.3967 45.7132 58.7228 46.293 59.3032C46.8727 59.8837 47.1985 60.671 47.1985 61.4919C47.1985 62.3128 46.8727 63.1001 46.293 63.6805C45.7132 64.261 44.9268 64.5871 44.1069 64.5871C43.2869 64.5871 42.5006 64.261 41.9207 63.6805C41.341 63.1001 41.0153 62.3128 41.0153 61.4919C41.0153 60.671 41.341 59.8837 41.9207 59.3032C42.5006 58.7228 43.2869 58.3967 44.1069 58.3967ZM68.8397 58.3967C69.6597 58.3967 70.446 58.7228 71.0257 59.3032C71.6056 59.8837 71.9313 60.671 71.9313 61.4919C71.9313 62.3128 71.6056 63.1001 71.0257 63.6805C70.446 64.261 69.6597 64.5871 68.8397 64.5871C68.0197 64.5871 67.2334 64.261 66.6536 63.6805C66.0738 63.1001 65.7481 62.3128 65.7481 61.4919C65.7481 60.671 66.0738 59.8837 66.6536 59.3032C67.2334 58.7228 68.0197 58.3967 68.8397 58.3967Z" fill="url(#paint0_linear_102_3740)"/>
</g>
<defs>
<linearGradient id="paint0_linear_102_3740" x1="68.8397" y1="36.0422" x2="34.9095" y2="67.6426" gradientUnits="userSpaceOnUse">
<stop stop-color="#FF9832"/>
<stop offset="1" stop-color="#FF7B1C"/>
</linearGradient>
<clipPath id="clip0_102_3740">
<rect width="108" height="104" fill="white"/>
</clipPath>
</defs>
</svg>
