<svg width="128" height="4" viewBox="0 0 128 4" fill="none" xmlns="http://www.w3.org/2000/svg">
<g clip-path="url(#clip0_102_3743)">
<path d="M2 4C3.10457 4 4 3.10457 4 2C4 0.89543 3.10457 0 2 0C0.89543 0 0 0.89543 0 2C0 3.10457 0.89543 4 2 4Z" fill="black"/>
<path d="M33 4C34.1046 4 35 3.10457 35 2C35 0.89543 34.1046 0 33 0C31.8954 0 31 0.89543 31 2C31 3.10457 31.8954 4 33 4Z" fill="black"/>
<path d="M64 4C65.1046 4 66 3.10457 66 2C66 0.89543 65.1046 0 64 0C62.8954 0 62 0.89543 62 2C62 3.10457 62.8954 4 64 4Z" fill="black"/>
<path d="M95 4C96.1046 4 97 3.10457 97 2C97 0.89543 96.1046 0 95 0C93.8954 0 93 0.89543 93 2C93 3.10457 93.8954 4 95 4Z" fill="black"/>
<path d="M126 4C127.105 4 128 3.10457 128 2C128 0.89543 127.105 0 126 0C124.895 0 124 0.89543 124 2C124 3.10457 124.895 4 126 4Z" fill="black"/>
</g>
<defs>
<clipPath id="clip0_102_3743">
<rect width="128" height="4" fill="white"/>
</clipPath>
</defs>
</svg>
