<svg width="111" height="100" viewBox="0 0 111 100" fill="none" xmlns="http://www.w3.org/2000/svg">
<g clip-path="url(#clip0_102_3685)">
<path fill-rule="evenodd" clip-rule="evenodd" d="M56.8178 0.0333468C73.2026 -0.15337 91.2395 0.0178046 101.845 12.4873C112.719 25.2725 112.823 43.9481 107.773 59.9447C103.207 74.4091 90.7777 83.7839 77.1941 90.5737C63.2568 97.5398 47.7575 102.878 33.2471 97.1958C17.4994 91.0297 5.4678 77.3547 1.50826 60.9367C-2.50614 44.2914 1.54259 26.1831 13.0617 13.499C23.8472 1.62275 40.7611 0.216326 56.8178 0.0333468Z" fill="#FFF7EC"/>
<path d="M55.0829 70.339C54.7135 70.339 54.3592 70.194 54.098 69.9356C53.8368 69.6774 53.69 69.3272 53.69 68.9619V65.4006L51.8903 67.1827C51.6288 67.4409 51.2742 67.5858 50.9045 67.5856C50.5349 67.5853 50.1806 67.4399 49.9193 67.1813C49.6582 66.9227 49.5116 66.5722 49.5118 66.2067C49.5121 65.8412 49.6592 65.4909 49.9208 65.2327L53.69 61.5062V50.6903L44.2181 56.0969L42.8363 61.1922C42.7402 61.5451 42.5063 61.8456 42.1861 62.028C41.8658 62.2103 41.4854 62.2595 41.1285 62.1645C40.7717 62.0695 40.4675 61.8383 40.2832 61.5217C40.0987 61.2051 40.0491 60.829 40.1451 60.4761L40.8054 58.0469L37.6852 59.8261C37.3654 60.0058 36.9867 60.0533 36.6318 59.9579C36.2767 59.8627 35.9743 59.6324 35.7904 59.3175C35.6065 59.0026 35.556 58.6285 35.6501 58.277C35.7441 57.9254 35.9749 57.6249 36.2923 57.441L39.4125 55.6617L36.9497 55.009C36.773 54.9619 36.6074 54.881 36.4624 54.7706C36.3173 54.6604 36.1957 54.5229 36.1043 54.3662C36.013 54.2094 35.9538 54.0363 35.9301 53.8569C35.9065 53.6775 35.9187 53.4953 35.9663 53.3206C36.0139 53.1459 36.0958 52.9822 36.2073 52.8388C36.3189 52.6954 36.4579 52.5751 36.6165 52.4848C36.7751 52.3945 36.9501 52.336 37.1315 52.3126C37.313 52.2892 37.4973 52.3013 37.6741 52.3484L42.8224 53.7117L52.2971 48.3051L42.8252 42.8986L37.6713 44.2619C37.3167 44.3493 36.9416 44.2954 36.6269 44.1119C36.3122 43.9284 36.083 43.6301 35.9887 43.281C35.8943 42.932 35.9426 42.5603 36.1229 42.2462C36.3032 41.9319 36.6011 41.7004 36.9525 41.6013L39.4125 40.9486L36.2923 39.1694C36.1325 39.0795 35.9924 38.9595 35.8799 38.8159C35.7673 38.6724 35.6845 38.5083 35.6364 38.333C35.5883 38.1578 35.5757 37.9748 35.5994 37.7947C35.6231 37.6145 35.6826 37.4409 35.7744 37.2836C35.8663 37.1263 35.9887 36.9885 36.1346 36.8783C36.2806 36.7679 36.4471 36.6873 36.6247 36.6408C36.8023 36.5944 36.9874 36.5832 37.1694 36.6078C37.3514 36.6323 37.5267 36.6923 37.6852 36.7841L40.8054 38.5634L40.1451 36.1314C40.0944 35.9556 40.0796 35.7717 40.1016 35.5901C40.1236 35.4086 40.1819 35.2333 40.2731 35.0743C40.3643 34.9153 40.4867 34.7759 40.6329 34.6641C40.7793 34.5523 40.9466 34.4706 41.1252 34.4234C41.3039 34.3762 41.4902 34.3646 41.6734 34.3895C41.8566 34.4142 42.0329 34.4748 42.1922 34.5676C42.3514 34.6605 42.4904 34.7837 42.6009 34.9302C42.7116 35.0767 42.7915 35.2434 42.8363 35.4208L44.2153 40.5134L53.69 45.92V35.1041L49.9208 31.3776C49.7912 31.2497 49.6884 31.0979 49.6183 30.9308C49.5481 30.7637 49.5119 30.5845 49.5118 30.4035C49.5117 30.2226 49.5476 30.0434 49.6175 29.8762C49.6875 29.709 49.79 29.557 49.9193 29.429C50.0486 29.3009 50.2022 29.1993 50.3713 29.13C50.5403 29.0606 50.7215 29.0248 50.9045 29.0247C51.0875 29.0245 51.2689 29.0601 51.438 29.1292C51.6071 29.1984 51.7608 29.2997 51.8903 29.4276L53.69 31.2096V27.6484C53.69 27.2831 53.8368 26.9329 54.098 26.6746C54.3592 26.4163 54.7135 26.2712 55.0829 26.2712C55.4524 26.2712 55.8066 26.4163 56.0679 26.6746C56.3291 26.9329 56.4759 27.2831 56.4759 27.6484V31.2096L58.2783 29.4276C58.5399 29.1694 58.8945 29.0245 59.2641 29.0247C59.6338 29.025 59.9881 29.1704 60.2494 29.429C60.5105 29.6876 60.6571 30.0381 60.6568 30.4035C60.6566 30.769 60.5095 31.1194 60.2479 31.3776L56.4759 35.1041V45.92L65.9478 40.5134L67.3296 35.4181C67.4256 35.0652 67.6596 34.7646 67.9798 34.5823C68.3001 34.4 68.6805 34.3508 69.0373 34.4458C69.3942 34.5408 69.6983 34.772 69.8827 35.0886C70.0672 35.4052 70.1168 35.7813 70.0207 36.1342L69.3633 38.5634L72.4835 36.7841C72.8032 36.6045 73.182 36.557 73.5369 36.6523C73.8918 36.7476 74.1943 36.9779 74.3782 37.2928C74.5622 37.6077 74.6126 37.9817 74.5186 38.3333C74.4246 38.6849 74.1938 38.9854 73.8764 39.1694L70.7562 40.9486L73.2162 41.6013C73.573 41.6963 73.8771 41.9275 74.0616 42.2441C74.2459 42.5607 74.2956 42.9368 74.1996 43.2896C74.1035 43.6425 73.8696 43.9431 73.5494 44.1255C73.2292 44.3078 72.8487 44.3569 72.4918 44.2619L67.3435 42.8986L57.8688 48.3051L67.3407 53.7117L72.4918 52.3484C72.8487 52.2538 73.229 52.3032 73.5489 52.4858C73.869 52.6684 74.1025 52.9692 74.1982 53.322C74.2938 53.6748 74.2438 54.0507 74.0592 54.3671C73.8745 54.6834 73.5703 54.9144 73.2134 55.009L70.7534 55.6617L73.8736 57.441C74.191 57.6249 74.4218 57.9254 74.5158 58.277C74.6099 58.6285 74.5594 59.0026 74.3755 59.3175C74.1915 59.6324 73.8891 59.8627 73.5341 59.9579C73.1792 60.0533 72.8005 60.0058 72.4807 59.8261L69.3605 58.0469L70.0179 60.4789C70.0687 60.6546 70.0835 60.8386 70.0615 61.0201C70.0395 61.2017 69.9812 61.377 69.89 61.536C69.7987 61.695 69.6764 61.8344 69.5301 61.9462C69.3838 62.0579 69.2165 62.1397 69.0378 62.1869C68.8592 62.234 68.6729 62.2456 68.4897 62.2208C68.3065 62.1961 68.1302 62.1355 67.9709 62.0427C67.8117 61.9498 67.6727 61.8266 67.5621 61.6801C67.4516 61.5336 67.3716 61.3668 67.3268 61.1895L65.9478 56.0969L56.4759 50.6903V61.5062L60.2451 65.2327C60.5067 65.4909 60.6538 65.8412 60.654 66.2067C60.6543 66.5722 60.5077 66.9227 60.2466 67.1813C59.9853 67.4399 59.631 67.5853 59.2614 67.5856C58.8917 67.5858 58.5371 67.4409 58.2755 67.1827L56.4731 65.4006V68.9619C56.4731 69.3272 56.3263 69.6774 56.0651 69.9356C55.8039 70.194 55.4496 70.339 55.0801 70.339H55.0829Z" fill="#F08D46"/>
</g>
<defs>
<clipPath id="clip0_102_3685">
<rect width="111" height="100" fill="white"/>
</clipPath>
</defs>
</svg>
