<svg width="106" height="100" viewBox="0 0 106 100" fill="none" xmlns="http://www.w3.org/2000/svg">
<g clip-path="url(#clip0_135_2659)">
<path fill-rule="evenodd" clip-rule="evenodd" d="M55.5328 0.00704644C70.7712 -0.232662 85.7475 5.64329 95.3741 17.6653C105.12 29.8363 107.977 46.0714 104.703 61.4135C101.383 76.9745 92.7144 91.9195 78.2401 97.9724C64.508 103.715 50.202 96.0634 36.6616 89.8667C22.4154 83.348 5.24394 77.958 1.04723 62.6479C-3.28084 46.8587 6.53034 31.1698 17.2071 18.8949C27.1048 7.51563 40.6003 0.241944 55.5328 0.00704644Z" fill="#FFF7EC"/>
<path d="M36.4121 46.3098V45.2692C36.4121 44.4072 37.1083 43.7084 37.9672 43.7084H61.2938V40.5868C61.2938 39.1972 62.9719 38.503 63.9486 39.4831L69.1322 44.6858C69.7395 45.2954 69.7395 46.2836 69.1322 46.8931L63.9486 52.0958C62.9756 53.0721 61.2938 52.3876 61.2938 50.9922V47.8706H37.9672C37.1083 47.8706 36.4121 47.1718 36.4121 46.3098ZM68.0326 56.1949H44.706V53.0733C44.706 51.6871 43.0302 50.987 42.0512 51.9695L36.8676 57.1723C36.2603 57.7818 36.2603 58.7701 36.8676 59.3796L42.0512 64.5823C43.025 65.5595 44.706 64.8728 44.706 63.4786V60.357H68.0326C68.8915 60.357 69.5877 59.6582 69.5877 58.7962V57.7557C69.5877 56.8937 68.8915 56.1949 68.0326 56.1949Z" fill="#F08D46"/>
</g>
<defs>
<clipPath id="clip0_135_2659">
<rect width="106" height="100" fill="white"/>
</clipPath>
</defs>
</svg>
