<svg width="111" height="100" viewBox="0 0 111 100" fill="none" xmlns="http://www.w3.org/2000/svg">
<g clip-path="url(#clip0_135_2662)">
<path fill-rule="evenodd" clip-rule="evenodd" d="M56.8178 0.0333468C73.2026 -0.15337 91.2395 0.0178046 101.845 12.4873C112.719 25.2725 112.823 43.9481 107.773 59.9447C103.207 74.4091 90.7777 83.7839 77.1941 90.5737C63.2568 97.5398 47.7575 102.878 33.2471 97.1958C17.4994 91.0297 5.4678 77.3547 1.50826 60.9367C-2.50614 44.2914 1.54259 26.1831 13.0617 13.499C23.8472 1.62275 40.7611 0.216326 56.8178 0.0333468Z" fill="#FFF7EC"/>
<path d="M55.0758 56.0533C52.5352 56.0533 50.476 58.1127 50.476 60.6537C50.476 63.1948 52.5352 65.2542 55.0758 65.2542C57.6164 65.2542 59.6756 63.1948 59.6756 60.6537C59.6756 58.1127 57.6164 56.0533 55.0758 56.0533ZM55.0758 42.2518C57.6164 42.2518 59.6756 40.1924 59.6756 37.6514C59.6756 35.1102 57.6164 33.0508 55.0758 33.0508C52.5352 33.0508 50.476 35.1102 50.476 37.6514C50.476 40.1924 52.5352 42.2518 55.0758 42.2518ZM68.8751 45.7022H41.2765C40.0065 45.7022 38.9766 46.7323 38.9766 48.0025V50.3026C38.9766 51.5728 40.0065 52.6029 41.2765 52.6029H68.8751C70.1451 52.6029 71.175 51.5728 71.175 50.3026V48.0025C71.175 46.7323 70.1451 45.7022 68.8751 45.7022Z" fill="#F08D46"/>
</g>
<defs>
<clipPath id="clip0_135_2662">
<rect width="111" height="100" fill="white"/>
</clipPath>
</defs>
</svg>
