<svg width="104" height="100" viewBox="0 0 104 100" fill="none" xmlns="http://www.w3.org/2000/svg">
<g clip-path="url(#clip0_102_3688)">
<path fill-rule="evenodd" clip-rule="evenodd" d="M54.0378 0.000268875C67.8871 0.0482298 80.6976 6.38036 89.8187 16.9532C99.5455 28.229 105.84 42.5592 103.517 57.3567C101.001 73.3747 91.828 88.1278 77.5089 95.3437C62.9966 102.657 45.9736 100.774 31.3306 93.7341C16.56 86.6325 3.30391 74.6342 0.467126 58.3041C-2.2461 42.6853 7.28985 28.3055 17.9493 16.7043C27.4346 6.38094 40.1265 -0.0479064 54.0378 0.000268875Z" fill="#FFF7EC"/>
<path d="M42.8652 26.9449C43.6843 25.441 45.5489 24.8576 47.0795 25.6262L51.2436 27.7173C52.1189 28.1569 53.1481 28.168 54.0327 27.7475L58.2411 25.747C59.788 25.0118 61.6395 25.6354 62.4259 27.1566L64.5653 31.2952C65.0149 32.1651 65.8411 32.7789 66.8039 32.9585L71.3848 33.8131C73.0686 34.1272 74.1998 35.7196 73.9415 37.4124L73.239 42.0177C73.0914 42.9857 73.3988 43.9677 74.0721 44.6788L77.2757 48.0619C78.4533 49.3054 78.4321 51.2585 77.2279 52.4762L73.9518 55.7891C73.2632 56.4854 72.9345 57.4605 73.0612 58.4316L73.6638 63.0509C73.8853 64.7489 72.7199 66.3166 71.0297 66.5941L66.4313 67.3492C65.4647 67.508 64.6256 68.1037 64.1572 68.9637L61.9287 73.055C61.1095 74.5589 59.2449 75.1423 57.7144 74.3736L53.5502 72.2825C52.6749 71.843 51.6458 71.8319 50.7611 72.2523L46.5527 74.2527C45.0058 74.9881 43.1543 74.3644 42.3679 72.8432L40.2286 68.7046C39.7789 67.8347 38.9528 67.2209 37.9899 67.0413L33.409 66.1868C31.7252 65.8727 30.594 64.2802 30.8523 62.5874L31.5548 57.9821C31.7025 57.0141 31.3951 56.0322 30.7217 55.3211L27.5181 51.938C26.3405 50.6944 26.3617 48.7414 27.5659 47.5237L30.842 44.2107C31.5307 43.5143 31.8593 42.5392 31.7326 41.5683L31.13 36.9488C30.9085 35.2509 32.0739 33.6833 33.7641 33.4058L38.3625 32.6506C39.329 32.4919 40.1682 31.8962 40.6366 31.0362L42.8652 26.9449Z" fill="#F08D46"/>
<path d="M45.9759 50.3746C44.7184 50.3746 43.7086 50.0412 42.9464 49.3746C42.2033 48.7079 41.7937 47.8031 41.7175 46.6603C41.6984 46.3365 41.6889 45.9079 41.6889 45.3746C41.6889 44.8031 41.6984 44.346 41.7175 44.0031C41.7937 42.8222 42.1938 41.8888 42.9179 41.2031C43.6419 40.5174 44.6612 40.1746 45.9759 40.1746C47.2906 40.1746 48.31 40.5174 49.034 41.2031C49.7771 41.8888 50.1772 42.8222 50.2344 44.0031C50.2725 44.765 50.2915 45.2603 50.2915 45.4888C50.2915 45.6984 50.2725 46.0888 50.2344 46.6603C50.1772 47.8031 49.7676 48.7079 49.0054 49.3746C48.2623 50.0412 47.2525 50.3746 45.9759 50.3746ZM43.6324 60.3174C43.4609 60.3174 43.318 60.2698 43.2036 60.1746C43.0893 60.0603 43.0322 59.9174 43.0322 59.746C43.0322 59.6317 43.0703 59.5269 43.1465 59.4317L57.2365 40.8603C57.3889 40.6698 57.5318 40.5365 57.6652 40.4603C57.7986 40.365 57.9796 40.3174 58.2082 40.3174H59.723C59.9135 40.3174 60.0564 40.3746 60.1517 40.4888C60.266 40.5841 60.3232 40.7174 60.3232 40.8888C60.3232 41.0031 60.2851 41.1079 60.2088 41.2031L46.1188 59.7746C45.9664 59.965 45.8235 60.1079 45.6901 60.2031C45.5567 60.2793 45.3757 60.3174 45.1471 60.3174H43.6324ZM45.9759 48.2603C46.5285 48.2603 46.9381 48.0984 47.2049 47.7746C47.4716 47.4317 47.624 47.0127 47.6622 46.5174C47.7003 45.8698 47.7193 45.4698 47.7193 45.3174C47.7193 45.1079 47.7003 44.7174 47.6622 44.146C47.6431 43.6508 47.4907 43.2412 47.2049 42.9174C46.9381 42.5746 46.5285 42.4031 45.9759 42.4031C45.4234 42.4031 45.0137 42.5746 44.747 42.9174C44.4802 43.2412 44.3373 43.6508 44.3183 44.146C44.2992 44.4317 44.2897 44.8222 44.2897 45.3174C44.2897 45.7936 44.2992 46.1936 44.3183 46.5174C44.3564 47.0127 44.4993 47.4317 44.747 47.7746C45.0137 48.0984 45.4234 48.2603 45.9759 48.2603ZM57.3794 60.4888C56.1219 60.4888 55.112 60.146 54.3499 59.4603C53.6068 58.7555 53.1972 57.8222 53.121 56.6603C53.1019 56.3365 53.0924 55.9079 53.0924 55.3746C53.0924 54.8222 53.1019 54.3746 53.121 54.0317C53.1972 52.8508 53.5973 51.9174 54.3213 51.2317C55.0454 50.546 56.0647 50.2031 57.3794 50.2031C58.6941 50.2031 59.7135 50.546 60.4375 51.2317C61.1806 51.9174 61.5807 52.8508 61.6378 54.0317C61.676 54.7936 61.695 55.2793 61.695 55.4888C61.695 55.6984 61.676 56.0888 61.6378 56.6603C61.5616 57.8222 61.1425 58.7555 60.3803 59.4603C59.6372 60.146 58.6369 60.4888 57.3794 60.4888ZM57.3794 58.2603C57.951 58.2603 58.3607 58.0984 58.6084 57.7746C58.8751 57.4317 59.0275 57.0222 59.0656 56.546C59.1037 55.8984 59.1228 55.4984 59.1228 55.346C59.1228 55.1365 59.1037 54.746 59.0656 54.1746C59.0466 53.6793 58.8942 53.2603 58.6084 52.9174C58.3416 52.5746 57.932 52.4031 57.3794 52.4031C56.8269 52.4031 56.4172 52.5746 56.1505 52.9174C55.8837 53.2412 55.7313 53.6603 55.6932 54.1746C55.6741 54.4603 55.6646 54.8508 55.6646 55.346C55.6646 55.8222 55.6741 56.2222 55.6932 56.546C55.7503 57.0412 55.9028 57.4508 56.1505 57.7746C56.4172 58.0984 56.8269 58.2603 57.3794 58.2603Z" fill="#F2F2F2"/>
</g>
<defs>
<clipPath id="clip0_102_3688">
<rect width="104" height="100" fill="white"/>
</clipPath>
</defs>
</svg>
