<svg width="106" height="100" viewBox="0 0 106 100" fill="none" xmlns="http://www.w3.org/2000/svg">
<g clip-path="url(#clip0_102_3682)">
<path fill-rule="evenodd" clip-rule="evenodd" d="M55.5328 0.00704644C70.7712 -0.232662 85.7475 5.64329 95.3741 17.6653C105.12 29.8363 107.977 46.0714 104.703 61.4135C101.383 76.9745 92.7144 91.9195 78.2401 97.9724C64.508 103.715 50.202 96.0634 36.6616 89.8667C22.4154 83.348 5.24394 77.958 1.04723 62.6479C-3.28084 46.8587 6.53034 31.1698 17.2071 18.8949C27.1048 7.51563 40.6003 0.241944 55.5328 0.00704644Z" fill="#FFF7EC"/>
<path d="M43.1283 49.9999C47.9021 49.9999 51.766 46.0904 51.766 41.2601C51.766 36.4298 47.9021 32.5203 43.1283 32.5203C38.3544 32.5203 34.4905 36.4298 34.4905 41.2601C34.4905 46.0904 38.3544 49.9999 43.1283 49.9999ZM49.0513 52.497H48.4112C46.807 53.2773 45.0255 53.7456 43.1283 53.7456C41.231 53.7456 39.4572 53.2773 37.8453 52.497H37.2052C32.3001 52.497 28.3206 56.5236 28.3206 61.4866V63.734C28.3206 65.8019 29.9787 67.4796 32.0225 67.4796H54.234C56.2778 67.4796 57.9359 65.8019 57.9359 63.734V61.4866C57.9359 56.5236 53.9564 52.497 49.0513 52.497ZM65.3397 49.9999C69.4273 49.9999 72.7435 46.6445 72.7435 42.5086C72.7435 38.3729 69.4273 35.0173 65.3397 35.0173C61.2521 35.0173 57.9359 38.3729 57.9359 42.5086C57.9359 46.6445 61.2521 49.9999 65.3397 49.9999ZM69.0416 52.497H68.7485C67.6766 52.8716 66.5428 53.1213 65.3397 53.1213C64.1366 53.1213 63.0028 52.8716 61.9309 52.497H61.6378C60.0645 52.497 58.6145 52.9574 57.342 53.6988C59.2238 55.7511 60.4038 58.4745 60.4038 61.4866V64.4831C60.4038 64.6547 60.3652 64.8186 60.3575 64.9825H73.9775C76.0213 64.9825 77.6794 63.3048 77.6794 61.2369C77.6794 56.4065 73.8155 52.497 69.0416 52.497Z" fill="#F08D46"/>
</g>
<defs>
<clipPath id="clip0_102_3682">
<rect width="106" height="100" fill="white"/>
</clipPath>
</defs>
</svg>
