<svg width="112" height="100" viewBox="0 0 112 100" fill="none" xmlns="http://www.w3.org/2000/svg">
<g clip-path="url(#clip0_135_2665)">
<path fill-rule="evenodd" clip-rule="evenodd" d="M57.3297 0.0333468C73.862 -0.15337 92.0614 0.0178046 102.762 12.4873C113.735 25.2725 113.84 43.9481 108.744 59.9447C104.137 74.4091 91.5955 83.7839 77.8895 90.5737C63.8267 97.5398 48.1878 102.878 33.5466 97.1958C17.6571 91.0297 5.51706 77.3547 1.52185 60.9367C-2.52871 44.2914 1.55649 26.1831 13.1794 13.499C24.062 1.62275 41.1284 0.216326 57.3297 0.0333468Z" fill="#FFF7EC"/>
<path d="M55.579 70.339C55.2062 70.339 54.8488 70.1939 54.5852 69.9356C54.3216 69.6774 54.1735 69.3271 54.1735 68.9619V65.4006L52.3576 67.1826C52.0937 67.4408 51.7359 67.5858 51.3629 67.5855C50.99 67.5852 50.6324 67.4398 50.3689 67.1813C50.1054 66.9226 49.9574 66.5721 49.9577 66.2067C49.958 65.8412 50.1064 65.4908 50.3703 65.2326L54.1735 61.5062V50.6902L44.6162 56.0969L43.222 61.1921C43.125 61.545 42.8891 61.8456 42.566 62.028C42.2428 62.2102 41.8589 62.2594 41.4989 62.1644C41.1388 62.0694 40.8319 61.8382 40.6459 61.5216C40.4598 61.205 40.4097 60.8289 40.5066 60.476L41.1728 58.0469L38.0245 59.826C37.7018 60.0058 37.3197 60.0532 36.9616 59.9579C36.6034 59.8626 36.2982 59.6324 36.1126 59.3174C35.9271 59.0025 35.8761 58.6285 35.971 58.2769C36.0659 57.9253 36.2988 57.6248 36.619 57.4409L39.7673 55.6616L37.2824 55.0089C37.1041 54.9619 36.937 54.8809 36.7907 54.7706C36.6443 54.6603 36.5216 54.5229 36.4294 54.3661C36.3372 54.2093 36.2775 54.0363 36.2536 53.8569C36.2298 53.6775 36.2422 53.4952 36.2901 53.3206C36.3382 53.1458 36.4208 52.9821 36.5334 52.8387C36.6459 52.6953 36.7862 52.575 36.9462 52.4847C37.1062 52.3945 37.2828 52.3359 37.4659 52.3125C37.649 52.2891 37.8349 52.3013 38.0133 52.3483L43.208 53.7116L52.768 48.3051L43.2108 42.8986L38.0105 44.2619C37.6527 44.3492 37.2743 44.2953 36.9566 44.1119C36.6391 43.9284 36.4078 43.63 36.3127 43.2809C36.2175 42.9319 36.2662 42.5602 36.4481 42.2461C36.63 41.9319 36.9306 41.7003 37.2852 41.6013L39.7673 40.9486L36.619 39.1693C36.4579 39.0795 36.3164 38.9594 36.2029 38.8158C36.0894 38.6724 36.0058 38.5082 35.9573 38.333C35.9087 38.1577 35.8961 37.9747 35.9199 37.7947C35.9439 37.6145 36.0039 37.4408 36.0965 37.2836C36.1892 37.1263 36.3127 36.9885 36.4599 36.8782C36.6072 36.7679 36.7752 36.6872 36.9544 36.6408C37.1336 36.5943 37.3204 36.5831 37.5041 36.6077C37.6877 36.6323 37.8646 36.6923 38.0245 36.7841L41.1728 38.5633L40.5066 36.1313C40.4554 35.9556 40.4405 35.7716 40.4627 35.5901C40.4849 35.4086 40.5437 35.2332 40.6357 35.0742C40.7278 34.9152 40.8512 34.7758 40.9988 34.6641C41.1465 34.5523 41.3153 34.4705 41.4955 34.4233C41.6758 34.3762 41.8638 34.3646 42.0486 34.3894C42.2335 34.4141 42.4114 34.4747 42.5721 34.5675C42.7328 34.6604 42.873 34.7836 42.9845 34.9302C43.0962 35.0766 43.1768 35.2434 43.222 35.4208L44.6134 40.5133L54.1735 45.9199V35.1041L50.3703 31.3775C50.2396 31.2497 50.1359 31.0979 50.0651 30.9308C49.9943 30.7636 49.9578 30.5845 49.9577 30.4035C49.9575 30.2225 49.9938 30.0434 50.0643 29.8762C50.1349 29.7089 50.2384 29.5569 50.3689 29.4289C50.4993 29.3008 50.6543 29.1992 50.8249 29.1299C50.9955 29.0606 51.1782 29.0247 51.3629 29.0247C51.5476 29.0245 51.7306 29.0601 51.9012 29.1291C52.0719 29.1983 52.2269 29.2997 52.3576 29.4275L54.1735 31.2096V27.6483C54.1735 27.283 54.3216 26.9328 54.5852 26.6746C54.8488 26.4163 55.2062 26.2712 55.579 26.2712C55.9518 26.2712 56.3092 26.4163 56.5728 26.6746C56.8364 26.9328 56.9845 27.283 56.9845 27.6483V31.2096L58.8031 29.4275C59.0671 29.1693 59.4249 29.0244 59.7978 29.0247C60.1708 29.0249 60.5284 29.1703 60.792 29.4289C61.0555 29.6875 61.2034 30.038 61.2031 30.4035C61.2028 30.769 61.0544 31.1193 60.7905 31.3775L56.9845 35.1041V45.9199L66.5417 40.5133L67.936 35.418C68.0329 35.0652 68.2689 34.7646 68.592 34.5822C68.9152 34.3999 69.2991 34.3508 69.6591 34.4458C70.0192 34.5408 70.3261 34.7719 70.5121 35.0886C70.6982 35.4052 70.7483 35.7813 70.6514 36.1341L69.988 38.5633L73.1363 36.7841C73.4589 36.6044 73.8411 36.5569 74.1992 36.6523C74.5573 36.7475 74.8626 36.9778 75.0481 37.2927C75.2337 37.6076 75.2846 37.9817 75.1898 38.3332C75.0949 38.6848 74.862 38.9853 74.5418 39.1693L71.3935 40.9486L73.8756 41.6013C74.2356 41.6963 74.5425 41.9274 74.7286 42.2441C74.9146 42.5607 74.9647 42.9368 74.8679 43.2896C74.7709 43.6424 74.5349 43.943 74.2118 44.1254C73.8887 44.3077 73.5048 44.3569 73.1447 44.2619L67.95 42.8986L58.3899 48.3051L67.9472 53.7116L73.1447 52.3483C73.5048 52.2537 73.8885 52.3031 74.2113 52.4858C74.5343 52.6683 74.7699 52.9691 74.8664 53.3219C74.9629 53.6747 74.9125 54.0507 74.7262 54.367C74.5398 54.6834 74.2329 54.9143 73.8728 55.0089L71.3907 55.6616L74.539 57.4409C74.8591 57.6248 75.092 57.9253 75.1869 58.2769C75.2818 58.6285 75.2309 59.0025 75.0454 59.3174C74.8597 59.6324 74.5546 59.8626 74.1964 59.9579C73.8382 60.0532 73.4562 60.0058 73.1335 59.826L69.9852 58.0469L70.6485 60.4788C70.6998 60.6546 70.7146 60.8386 70.6925 61.0201C70.6703 61.2016 70.6114 61.3769 70.5195 61.5359C70.4274 61.6949 70.3039 61.8343 70.1563 61.9461C70.0087 62.0579 69.8398 62.1397 69.6596 62.1869C69.4794 62.234 69.2914 62.2456 69.1065 62.2208C68.9217 62.196 68.7438 62.1354 68.583 62.0426C68.4224 61.9497 68.2822 61.8265 68.1706 61.68C68.059 61.5336 67.9783 61.3668 67.9332 61.1894L66.5417 56.0969L56.9845 50.6902V61.5062L60.7877 65.2326C61.0516 65.4908 61.2 65.8412 61.2003 66.2067C61.2005 66.5721 61.0526 66.9226 60.7891 67.1813C60.5255 67.4398 60.168 67.5852 59.7951 67.5855C59.422 67.5858 59.0642 67.4408 58.8003 67.1826L56.9816 65.4006V68.9619C56.9816 69.3271 56.8336 69.6774 56.57 69.9356C56.3064 70.1939 55.9489 70.339 55.5762 70.339H55.579Z" fill="#F08D46"/>
</g>
<defs>
<clipPath id="clip0_135_2665">
<rect width="112" height="100" fill="white"/>
</clipPath>
</defs>
</svg>
