<svg width="104" height="100" viewBox="0 0 104 100" fill="none" xmlns="http://www.w3.org/2000/svg">
<g clip-path="url(#clip0_135_2668)">
<path fill-rule="evenodd" clip-rule="evenodd" d="M54.0378 0.000268875C67.8871 0.0482298 80.6976 6.38036 89.8187 16.9532C99.5455 28.229 105.84 42.5592 103.517 57.3567C101.001 73.3747 91.828 88.1278 77.5089 95.3437C62.9966 102.657 45.9736 100.774 31.3306 93.7341C16.56 86.6325 3.30391 74.6342 0.467126 58.3041C-2.2461 42.6853 7.28985 28.3055 17.9493 16.7043C27.4346 6.38094 40.1265 -0.0479064 54.0378 0.000268875Z" fill="#FFF7EC"/>
<path d="M42.865 26.945C43.6841 25.4411 45.5487 24.8577 47.0793 25.6264L51.2434 27.7175C52.1187 28.157 53.1479 28.1681 54.0325 27.7476L58.2409 25.7471C59.7878 25.0119 61.6393 25.6356 62.4257 27.1568L64.5651 31.2953C65.0147 32.1652 65.8409 32.7791 66.8037 32.9587L71.3846 33.8132C73.0684 34.1273 74.1996 35.7198 73.9413 37.4125L73.2388 42.0178C73.0912 42.9858 73.3986 43.9678 74.0719 44.6789L77.2755 48.062C78.4531 49.3055 78.4319 51.2586 77.2277 52.4763L73.9516 55.7892C73.263 56.4856 72.9343 57.4606 73.061 58.4317L73.6636 63.051C73.8851 64.7491 72.7197 66.3167 71.0295 66.5942L66.4311 67.3494C65.4646 67.5081 64.6254 68.1038 64.157 68.9638L61.9285 73.0551C61.1093 74.559 59.2447 75.1424 57.7142 74.3737L53.55 72.2826C52.6747 71.8431 51.6456 71.832 50.7609 72.2525L46.5525 74.2529C45.0056 74.9882 43.1541 74.3645 42.3677 72.8433L40.2284 68.7047C39.7787 67.8349 38.9526 67.221 37.9897 67.0414L33.4088 66.1869C31.725 65.8728 30.5938 64.2803 30.8521 62.5875L31.5546 57.9822C31.7023 57.0142 31.3949 56.0323 30.7215 55.3212L27.5179 51.9381C26.3403 50.6945 26.3615 48.7415 27.5657 47.5238L30.8418 44.2108C31.5305 43.5145 31.8591 42.5394 31.7324 41.5684L31.1298 36.949C30.9083 35.251 32.0737 33.6834 33.7639 33.4059L38.3623 32.6507C39.3288 32.492 40.168 31.8963 40.6364 31.0363L42.865 26.945Z" fill="#F08D46"/>
<path d="M45.9765 50.3746C44.7189 50.3746 43.7091 50.0413 42.947 49.3746C42.2039 48.708 41.7942 47.8032 41.718 46.6603C41.699 46.3365 41.6895 45.908 41.6895 45.3746C41.6895 44.8032 41.699 44.3461 41.718 44.0032C41.7942 42.8222 42.1944 41.8889 42.9184 41.2032C43.6424 40.5175 44.6618 40.1746 45.9765 40.1746C47.2912 40.1746 48.3105 40.5175 49.0346 41.2032C49.7776 41.8889 50.1778 42.8222 50.2349 44.0032C50.273 44.7651 50.2921 45.2603 50.2921 45.4889C50.2921 45.6984 50.273 46.0889 50.2349 46.6603C50.1778 47.8032 49.7681 48.708 49.006 49.3746C48.2629 50.0413 47.2531 50.3746 45.9765 50.3746ZM43.6329 60.3175C43.4614 60.3175 43.3185 60.2699 43.2042 60.1746C43.0899 60.0603 43.0327 59.9175 43.0327 59.746C43.0327 59.6318 43.0708 59.527 43.147 59.4318L57.2371 40.8603C57.3895 40.6699 57.5324 40.5365 57.6658 40.4603C57.7991 40.3651 57.9801 40.3175 58.2088 40.3175H59.7235C59.9141 40.3175 60.057 40.3746 60.1522 40.4889C60.2665 40.5841 60.3237 40.7175 60.3237 40.8889C60.3237 41.0032 60.2856 41.108 60.2094 41.2032L46.1194 59.7746C45.9669 59.9651 45.824 60.108 45.6907 60.2032C45.5573 60.2794 45.3763 60.3175 45.1477 60.3175H43.6329ZM45.9765 48.2603C46.529 48.2603 46.9387 48.0984 47.2054 47.7746C47.4722 47.4318 47.6246 47.0127 47.6627 46.5175C47.7008 45.8699 47.7199 45.4699 47.7199 45.3175C47.7199 45.108 47.7008 44.7175 47.6627 44.1461C47.6437 43.6508 47.4912 43.2413 47.2054 42.9175C46.9387 42.5746 46.529 42.4032 45.9765 42.4032C45.4239 42.4032 45.0143 42.5746 44.7475 42.9175C44.4808 43.2413 44.3379 43.6508 44.3188 44.1461C44.2998 44.4318 44.2902 44.8222 44.2902 45.3175C44.2902 45.7937 44.2998 46.1937 44.3188 46.5175C44.3569 47.0127 44.4998 47.4318 44.7475 47.7746C45.0143 48.0984 45.4239 48.2603 45.9765 48.2603ZM57.38 60.4889C56.1224 60.4889 55.1126 60.146 54.3505 59.4603C53.6074 58.7556 53.1977 57.8222 53.1215 56.6603C53.1025 56.3365 53.0929 55.908 53.0929 55.3746C53.0929 54.8222 53.1025 54.3746 53.1215 54.0318C53.1977 52.8508 53.5979 51.9175 54.3219 51.2318C55.0459 50.5461 56.0653 50.2032 57.38 50.2032C58.6946 50.2032 59.714 50.5461 60.438 51.2318C61.1811 51.9175 61.5812 52.8508 61.6384 54.0318C61.6765 54.7937 61.6956 55.2794 61.6956 55.4889C61.6956 55.6984 61.6765 56.0889 61.6384 56.6603C61.5622 57.8222 61.143 58.7556 60.3809 59.4603C59.6378 60.146 58.6375 60.4889 57.38 60.4889ZM57.38 58.2603C57.9516 58.2603 58.3612 58.0984 58.6089 57.7746C58.8756 57.4318 59.0281 57.0222 59.0662 56.5461C59.1043 55.8984 59.1233 55.4984 59.1233 55.3461C59.1233 55.1365 59.1043 54.7461 59.0662 54.1746C59.0471 53.6794 58.8947 53.2603 58.6089 52.9175C58.3422 52.5746 57.9325 52.4032 57.38 52.4032C56.8274 52.4032 56.4178 52.5746 56.151 52.9175C55.8843 53.2413 55.7318 53.6603 55.6937 54.1746C55.6747 54.4603 55.6651 54.8508 55.6651 55.3461C55.6651 55.8222 55.6747 56.2222 55.6937 56.5461C55.7509 57.0413 55.9033 57.4508 56.151 57.7746C56.4178 58.0984 56.8274 58.2603 57.38 58.2603Z" fill="#F2F2F2"/>
</g>
<defs>
<clipPath id="clip0_135_2668">
<rect width="104" height="100" fill="white"/>
</clipPath>
</defs>
</svg>
