<svg width="105" height="103" viewBox="0 0 105 103" fill="none" xmlns="http://www.w3.org/2000/svg">
<g clip-path="url(#clip0_102_3730)">
<path fill-rule="evenodd" clip-rule="evenodd" d="M54.6583 2.33237e-05C70.054 0.0188954 82.118 11.2471 91.5215 23.0162C100.687 34.4874 106.843 48.0707 104.5 62.3806C101.947 77.9771 93.7442 93.3675 78.9134 100.023C64.2643 106.599 47.7535 101.186 33.2222 94.3719C18.7712 87.5955 3.91824 78.4854 0.615685 63.3063C-2.64086 48.3386 7.60214 34.7282 17.6775 22.9256C27.4799 11.443 39.2456 -0.0188694 54.6583 2.33237e-05Z" fill="#FFF7EC"/>
<path d="M52.5 34.3335C49.5879 34.3335 47.0213 36.3386 46.1987 39.2519C45.3267 38.8407 44.4055 38.6179 43.4512 38.6179C41.7058 38.6179 40.0319 39.3401 38.7978 40.6256C37.5636 41.9112 36.8702 43.6548 36.8702 45.4728C36.8742 46.9909 37.3605 48.4649 38.2534 49.6648C39.1463 50.8646 40.3955 51.7227 41.806 52.1051V64.3241H63.1941V52.1051C66.0897 51.3167 68.1298 48.5919 68.1298 45.4728C68.1298 43.6548 67.4365 41.9112 66.2023 40.6256C64.9681 39.3401 63.2942 38.6179 61.5488 38.6179C60.5945 38.6179 59.6733 38.8407 58.8013 39.2519C57.9787 36.3386 55.4121 34.3335 52.5 34.3335ZM51.6774 49.7572H53.3226V61.7535H51.6774V49.7572ZM46.7417 53.1847H48.3869V61.7535H46.7417V53.1847ZM56.6131 53.1847H58.2583V61.7535H56.6131V53.1847ZM41.806 66.0378V67.7516C41.806 68.206 41.9793 68.6419 42.2878 68.9634C42.5963 69.2847 43.0148 69.4653 43.4512 69.4653H61.5488C61.9852 69.4653 62.4037 69.2847 62.7122 68.9634C63.0207 68.6419 63.1941 68.206 63.1941 67.7516V66.0378H41.806Z" fill="url(#paint0_linear_102_3730)"/>
<path d="M79.0522 34.4038L28.1242 69.7628" stroke="url(#paint1_linear_102_3730)" stroke-width="3" stroke-linecap="round"/>
</g>
<defs>
<linearGradient id="paint0_linear_102_3730" x1="60.6348" y1="36.2376" x2="42.3417" y2="68.7457" gradientUnits="userSpaceOnUse">
<stop stop-color="#FF9832"/>
<stop offset="1" stop-color="#FF7B1C"/>
</linearGradient>
<linearGradient id="paint1_linear_102_3730" x1="52.9008" y1="51.1007" x2="52.4448" y2="50.4441" gradientUnits="userSpaceOnUse">
<stop stop-color="#FF7B1C"/>
<stop offset="1" stop-color="#FF9832"/>
</linearGradient>
<clipPath id="clip0_102_3730">
<rect width="105" height="103" fill="white"/>
</clipPath>
</defs>
</svg>
