<svg width="41" height="65" viewBox="0 0 41 65" fill="none" xmlns="http://www.w3.org/2000/svg">
<path d="M27.5611 64.9364C27.054 64.9364 26.5468 64.6949 26.2933 64.2723C25.7861 63.6082 25.9763 62.6422 26.6736 62.1592C27.4977 61.6159 30.9842 59.7443 34.027 58.1746C23.9478 57.3897 15.5168 53.1636 9.62142 45.9791C-1.09168 32.9385 -1.34524 13.6794 1.63414 1.18206C1.82431 0.397208 2.71179 -0.146152 3.53587 0.0349678C4.35996 0.216088 4.93048 1.06132 4.7403 1.84617C1.88771 13.6794 2.07788 31.9121 12.0937 44.1076C17.7989 51.0505 25.7228 54.7937 35.6752 55.2163L34.5341 53.8277C33.6466 52.8013 32.8226 51.775 31.9351 50.7486C31.4913 50.2053 30.9842 49.6015 30.4771 48.9978C29.9066 48.3337 30.0333 47.4281 30.7306 46.8847C31.4279 46.3414 32.3788 46.4621 32.9493 47.1262C32.9493 47.1262 32.9493 47.1866 33.0127 47.1866L37.0698 51.9561C37.3867 52.258 37.6403 52.6202 37.9572 52.9825C38.9081 54.0692 39.9223 55.1559 40.7464 56.3634C40.7464 56.4237 40.8098 56.4237 40.8098 56.4841C40.8732 56.6652 40.9366 56.786 41 56.9671V57.3293C41 57.4501 40.9366 57.5708 40.8732 57.6916C40.8098 57.752 40.8098 57.8727 40.7464 57.9331C40.683 58.0538 40.5563 58.1746 40.4295 58.2953C40.3661 58.3557 40.2393 58.4161 40.1125 58.4764C40.0491 58.4764 40.0491 58.5368 39.9857 58.5368C39.225 58.899 29.8432 63.7289 28.512 64.5742C28.195 64.876 27.878 64.9364 27.5611 64.9364Z" fill="#C9C9C9"/>
</svg>
