<svg width="25" height="24" viewBox="0 0 25 24" fill="none" xmlns="http://www.w3.org/2000/svg">
<g clip-path="url(#clip0_102_3717)">
<path d="M24.5804 14.8766L21.494 20.0883C20.889 21.1234 19.7656 21.665 18.6298 21.5928H16.1606V24L13.0742 18.5838L16.1606 13.1675V15.5747H19.6421L16.9014 10.9408L22.2471 7.93179L24.4693 11.6871C25.1113 12.6138 25.1977 13.8536 24.5804 14.8766ZM9.01241 0H15.1853C16.3952 0 17.4446 0.686058 17.9508 1.67302L19.1853 3.7673L21.3211 2.56369L18.0619 7.87161L11.7038 7.97994L13.8396 6.77633L12.0989 3.82748L9.37044 8.46138L4.01238 5.45236L6.23462 1.69709C6.74079 0.698094 7.79018 0 9.01241 0ZM3.87657 20.1003L0.790129 14.8887C0.185187 13.8656 0.271607 12.6379 0.901242 11.7111L2.13582 9.62889L0 8.42528L6.34573 8.52156L9.61736 13.8415L7.48154 12.6379L5.74078 15.5747H11.2223V21.5928H6.77783C6.19944 21.6336 5.6209 21.5153 5.10802 21.2515C4.59513 20.9877 4.16848 20.5888 3.87657 20.1003Z" fill="#B0CB6C"/>
</g>
<defs>
<clipPath id="clip0_102_3717">
<rect width="25" height="24" fill="white"/>
</clipPath>
</defs>
</svg>
