<svg width="26" height="26" viewBox="0 0 26 26" fill="none" xmlns="http://www.w3.org/2000/svg">
<g clip-path="url(#clip0_102_3715)">
<path d="M23.5617 11.375C24.0438 11.375 24.5151 11.232 24.9159 10.9642C25.3167 10.6964 25.6291 10.3157 25.8136 9.87029C25.9981 9.4249 26.0464 8.9348 25.9523 8.46197C25.8583 7.98914 25.6261 7.55482 25.2852 7.21393C24.9444 6.87304 24.5101 6.64089 24.0372 6.54684C23.5644 6.45278 23.0743 6.50105 22.629 6.68554C22.1836 6.87003 21.8029 7.18245 21.5351 7.5833C21.2673 7.98414 21.1243 8.45541 21.1243 8.9375C21.1243 9.58396 21.3811 10.204 21.8382 10.6611C22.2953 11.1182 22.9153 11.375 23.5617 11.375ZM14.1914 9.06191C14.4635 8.97926 14.7464 8.93734 15.0308 8.9375C15.3602 8.94024 15.6867 9.00021 15.9956 9.11473L16.775 6.64625C16.8298 6.4739 16.8456 6.29151 16.8212 6.11232C16.7967 5.93312 16.7327 5.76161 16.6338 5.61021C16.5349 5.45882 16.4035 5.33134 16.2492 5.23703C16.0949 5.14271 15.9215 5.08392 15.7417 5.06492C15.1562 4.99637 14.6139 5.39195 14.4361 5.9541L13.3748 9.3143L14.1914 9.06191ZM3.13056 19.6183C3.17119 19.6087 3.20876 19.5909 3.24989 19.5823V18.2777C3.25122 16.6125 3.77721 14.9901 4.75314 13.641C5.72907 12.2918 7.10531 11.2845 8.68636 10.7621L12.4288 9.60629L14.1634 4.11582C14.218 3.94364 14.2335 3.76149 14.209 3.58255C14.1846 3.40361 14.1206 3.23235 14.0218 3.08116C13.923 2.92997 13.7918 2.80263 13.6378 2.70835C13.4837 2.61407 13.3107 2.55521 13.1311 2.53602C12.5456 2.46797 12.0028 2.86355 11.825 3.4257L10.1265 8.82984C10.0939 8.9326 10.0219 9.01824 9.92627 9.0679C9.83061 9.11756 9.71914 9.12719 9.61638 9.09467C9.51363 9.06214 9.428 8.99013 9.37833 8.89447C9.32867 8.7988 9.31904 8.68733 9.35157 8.58457L11.5539 1.58742C11.6084 1.41524 11.624 1.23309 11.5995 1.05415C11.575 0.875213 11.511 0.703954 11.4122 0.552765C11.3134 0.401575 11.1823 0.274235 11.0282 0.179954C10.8742 0.0856727 10.7011 0.0268082 10.5215 0.00761794C9.93604 -0.060429 9.39422 0.335157 9.21599 0.896798L6.78212 8.60082C6.74966 8.70358 6.67772 8.78924 6.58211 8.83895C6.48649 8.88866 6.37505 8.89836 6.27229 8.8659C6.16954 8.83344 6.08388 8.76149 6.03417 8.66588C5.98446 8.57026 5.97477 8.45882 6.00723 8.35605L7.96529 2.16074C8.01981 1.98856 8.03539 1.80641 8.01089 1.62747C7.98639 1.44853 7.92243 1.27727 7.82364 1.12609C7.72484 0.974896 7.59368 0.847555 7.43963 0.753274C7.28559 0.658993 7.11252 0.600128 6.93294 0.580938C6.34745 0.507813 5.80512 0.90543 5.62739 1.46758L2.58062 11.1084L2.47601 8.5668C2.47702 8.4067 2.44647 8.24798 2.38612 8.0997C2.32576 7.95142 2.23679 7.81648 2.12427 7.70259C2.01176 7.58871 1.87791 7.49811 1.73037 7.43596C1.58283 7.37382 1.4245 7.34136 1.26441 7.34043C0.592598 7.33789 0.00914033 7.87566 0 8.55207V14.2766C0.0159974 15.3616 0.312773 16.4239 0.861407 17.36C1.41004 18.2962 2.19182 19.0742 3.13056 19.6183ZM24.7347 17.0625H16.6557C16.548 17.0625 16.4446 17.0197 16.3685 16.9435C16.2923 16.8673 16.2495 16.764 16.2495 16.6562C16.2495 16.5485 16.2923 16.4452 16.3685 16.369C16.4446 16.2928 16.548 16.25 16.6557 16.25H23.1555C23.3361 16.2501 23.5145 16.2101 23.6777 16.1328C23.841 16.0556 23.985 15.943 24.0994 15.8032C24.2138 15.6634 24.2957 15.5 24.3392 15.3247C24.3827 15.1493 24.3867 14.9666 24.3508 14.7895C24.2396 14.2106 23.6993 13.8125 23.1098 13.8125H12.9996L15.3908 12.9462C15.5438 12.8989 15.6859 12.8219 15.8092 12.7197C15.9324 12.6175 16.0343 12.492 16.109 12.3504C16.1838 12.2088 16.2299 12.0538 16.2447 11.8944C16.2596 11.735 16.2429 11.5742 16.1956 11.4212C16.1484 11.2682 16.0714 11.1261 15.9692 11.0028C15.867 10.8796 15.7415 10.7777 15.5999 10.7029C15.4583 10.6282 15.3033 10.5821 15.1439 10.5672C14.9845 10.5524 14.8237 10.569 14.6707 10.6163L9.20075 12.3048C7.94226 12.7186 6.8465 13.5191 6.06972 14.5923C5.29293 15.6654 4.87477 16.9564 4.87484 18.2812V19.5838C5.46077 19.7018 6.01332 19.948 6.49288 20.3048C6.97245 20.6615 7.36713 21.1199 7.64864 21.6472C7.93015 22.1745 8.09151 22.7575 8.12115 23.3545C8.15078 23.9515 8.04796 24.5476 7.82006 25.1002C8.76658 25.6844 9.8561 25.9958 10.9684 26H21.5305C21.7112 26.0001 21.8895 25.9601 22.0528 25.8828C22.216 25.8055 22.3601 25.693 22.4745 25.5532C22.5889 25.4134 22.6708 25.25 22.7143 25.0747C22.7577 24.8993 22.7617 24.7166 22.7259 24.5395C22.6147 23.9606 22.0744 23.5625 21.4848 23.5625H16.6557C16.548 23.5625 16.4446 23.5197 16.3685 23.4435C16.2923 23.3673 16.2495 23.264 16.2495 23.1562C16.2495 23.0485 16.2923 22.9452 16.3685 22.869C16.4446 22.7928 16.548 22.75 16.6557 22.75H23.1555C23.3361 22.7501 23.5145 22.7101 23.6777 22.6328C23.841 22.5555 23.985 22.443 24.0994 22.3032C24.2138 22.1634 24.2957 22 24.3392 21.8247C24.3827 21.6493 24.3867 21.4666 24.3508 21.2895C24.2396 20.7106 23.6993 20.3125 23.1098 20.3125H16.6557C16.548 20.3125 16.4446 20.2697 16.3685 20.1935C16.2923 20.1173 16.2495 20.014 16.2495 19.9062C16.2495 19.7985 16.2923 19.6952 16.3685 19.619C16.4446 19.5428 16.548 19.5 16.6557 19.5H24.7804C24.9611 19.5001 25.1394 19.4601 25.3027 19.3828C25.4659 19.3056 25.61 19.193 25.7244 19.0532C25.8388 18.9134 25.9207 18.75 25.9642 18.5747C26.0076 18.3993 26.0116 18.2166 25.9758 18.0395C25.8646 17.4606 25.3243 17.0625 24.7347 17.0625ZM19.4994 3.25C19.8207 3.25 20.1349 3.1547 20.4021 2.97614C20.6694 2.79758 20.8776 2.54379 21.0006 2.24686C21.1236 1.94993 21.1558 1.6232 21.0931 1.30798C21.0304 0.99276 20.8756 0.703212 20.6484 0.475952C20.4211 0.248692 20.1316 0.0939256 19.8164 0.0312246C19.5012 -0.0314763 19.1744 0.000704102 18.8775 0.123696C18.5806 0.246689 18.3268 0.454969 18.1483 0.722199C17.9697 0.989429 17.8744 1.30361 17.8744 1.625C17.8744 2.05598 18.0456 2.4693 18.3503 2.77405C18.6551 3.0788 19.0684 3.25 19.4994 3.25ZM4.06237 21.125C3.58029 21.125 3.10904 21.268 2.70821 21.5358C2.30738 21.8036 1.99497 22.1843 1.81048 22.6297C1.626 23.0751 1.57773 23.5652 1.67178 24.038C1.76583 24.5109 1.99797 24.9452 2.33885 25.2861C2.67973 25.627 3.11404 25.8591 3.58685 25.9532C4.05966 26.0472 4.54975 25.9989 4.99513 25.8145C5.44051 25.63 5.82118 25.3175 6.08901 24.9167C6.35683 24.5159 6.49979 24.0446 6.49979 23.5625C6.49979 22.916 6.24299 22.296 5.78588 21.8389C5.32878 21.3818 4.70881 21.125 4.06237 21.125Z" fill="#B0CB6C"/>
</g>
<defs>
<clipPath id="clip0_102_3715">
<rect width="26" height="26" fill="white"/>
</clipPath>
</defs>
</svg>
