<svg width="352" height="262" viewBox="0 0 352 262" fill="none" xmlns="http://www.w3.org/2000/svg">
<path fill-rule="evenodd" clip-rule="evenodd" d="M66.8767 51.3414C97.2969 19.2471 142.96 1.37015 191.528 0.098705C242.203 -1.22787 295.079 10.673 326.232 44.552C357.042 78.059 356.958 124.029 342.994 164.82C330.086 202.527 298.157 232.598 256.166 249.223C214.821 265.593 167.763 266.386 126.04 250.718C82.5187 234.373 45.9602 205.03 34.3552 165.923C33.0736 161.604 32.0912 157.26 31.3965 152.906C16.4105 152.146 0 139.946 0 139.946C0 139.946 18.5352 136.2 30.2694 131.095C31.816 102.362 45.1137 74.3024 66.8767 51.3414Z" fill="#F9E1C3"/>
</svg>
