<svg width="23" height="28" viewBox="0 0 23 28" fill="none" xmlns="http://www.w3.org/2000/svg">
<g clip-path="url(#clip0_102_3713)">
<path d="M11.5 1.75C12.5893 1.75 13.634 2.21094 14.4042 3.03141C15.1744 3.85188 15.6071 4.96468 15.6071 6.125V7H7.39286V6.125C7.39286 4.96468 7.82557 3.85188 8.59581 3.03141C9.36605 2.21094 10.4107 1.75 11.5 1.75ZM17.25 7V6.125C17.25 4.50055 16.6442 2.94263 15.5659 1.79397C14.4875 0.645311 13.025 0 11.5 0C9.97501 0 8.51247 0.645311 7.43414 1.79397C6.3558 2.94263 5.75 4.50055 5.75 6.125V7H0V24.5C0 25.4283 0.346173 26.3185 0.962363 26.9749C1.57855 27.6313 2.41429 28 3.28571 28H19.7143C20.5857 28 21.4214 27.6313 22.0376 26.9749C22.6538 26.3185 23 25.4283 23 24.5V7H17.25Z" fill="#BAD084"/>
</g>
<defs>
<clipPath id="clip0_102_3713">
<rect width="23" height="28" fill="white"/>
</clipPath>
</defs>
</svg>
