<svg width="25" height="28" viewBox="0 0 25 28" fill="none" xmlns="http://www.w3.org/2000/svg">
<g clip-path="url(#clip0_102_3719)">
<path fill-rule="evenodd" clip-rule="evenodd" d="M16.9643 6.125C16.9643 4.96468 16.4939 3.85188 15.6567 3.03141C14.8195 2.21094 13.684 1.75 12.5 1.75C11.316 1.75 10.1805 2.21094 9.34327 3.03141C8.50606 3.85188 8.03571 4.96468 8.03571 6.125V7H16.9643V6.125ZM18.75 6.125V7H25V24.5C25 25.4283 24.6237 26.3185 23.954 26.9749C23.2842 27.6313 22.3758 28 21.4286 28H3.57143C2.62423 28 1.71582 27.6313 1.04605 26.9749C0.376274 26.3185 0 25.4283 0 24.5V7H6.25V6.125C6.25 4.50055 6.90848 2.94263 8.08058 1.79397C9.25269 0.645311 10.8424 0 12.5 0C14.1576 0 15.7473 0.645311 16.9194 1.79397C18.0915 2.94263 18.75 4.50055 18.75 6.125ZM17.5964 15.4945C17.7641 15.3302 17.8583 15.1074 17.8583 14.875C17.8583 14.6426 17.7641 14.4198 17.5964 14.2555C17.4288 14.0912 17.2014 13.9989 16.9643 13.9989C16.7272 13.9989 16.4998 14.0912 16.3321 14.2555L11.6071 18.8878L9.56071 16.8805C9.4777 16.7991 9.37915 16.7346 9.27069 16.6906C9.16222 16.6466 9.04597 16.6239 8.92857 16.6239C8.81117 16.6239 8.69492 16.6466 8.58646 16.6906C8.47799 16.7346 8.37944 16.7991 8.29643 16.8805C8.21341 16.9619 8.14756 17.0584 8.10264 17.1647C8.05771 17.271 8.03459 17.3849 8.03459 17.5C8.03459 17.6151 8.05771 17.729 8.10264 17.8353C8.14756 17.9416 8.21341 18.0381 8.29643 18.1195L10.975 20.7445C11.0579 20.826 11.1565 20.8906 11.2649 20.9347C11.3734 20.9789 11.4897 21.0016 11.6071 21.0016C11.7246 21.0016 11.8409 20.9789 11.9493 20.9347C12.0578 20.8906 12.1563 20.826 12.2393 20.7445L17.5964 15.4945Z" fill="#B0CB6C"/>
</g>
<defs>
<clipPath id="clip0_102_3719">
<rect width="25" height="28" fill="white"/>
</clipPath>
</defs>
</svg>
